<svg width="64" height="64" viewBox="0 0 64 64" fill="none" xmlns="http://www.w3.org/2000/svg" role="img" aria-label="Фумигация">
  <rect width="64" height="64" rx="14" fill="#e9f6f0"/>
  <g stroke="#0c8c5e" stroke-width="2.4" stroke-linecap="round" stroke-linejoin="round" fill="none">
    <rect x="28" y="34" width="10" height="16" rx="2"/>
    <path d="M33 34v-4M30 30h6l-1-5h-4z"/>
    <path d="M33 21v-3"/>
    <path d="M44 24c3 0 5 2 5 5s-2 5-6 5M20 24c-3 0-5 2-5 5s2 5 6 5" opacity="0.85"/>
    <path d="M42 44c3 0 5-2 5-4M22 44c-3 0-5-2-5-4" opacity="0.6"/>
  </g>
</svg>
